# xmcd CD database file
#
# Track frame offsets:
#	150
#	12826
#	48501
#	63375
#	88875
#	112981
#	136737
#	154003
#	174470
#	196315
#	214344
#	230152
#	260335
#	281461
#
# Disc length: 4010 seconds
#
# Revision: 2
# Processed by: cddbd v1.5.2PL0 Copyright (c) Steve Scherf et al.
# Submitted via: CDex 1.70beta2
#
DISCID=c30fa80e
DTITLE=Axel Zwingenberger and Big Jay McNeely - Saxy Boogie Woogie
DYEAR=2007
DGENRE=Blues
TTITLE0=Saxy Boogie Woogie
TTITLE1=Cool Heat
TTITLE2=Greasy Groove
TTITLE3=Big Jay's Jungle Five
TTITLE4=Night Ride
TTITLE5=A Flat In The Basement
TTITLE6=Ha-yo, Silver, Let's Go!
TTITLE7=Just For Two
TTITLE8=Tender Feeling
TTITLE9=Truckin' Boogie
TTITLE10=Ridin' The Cows
TTITLE11=Blues Well Done
TTITLE12=Barbecue Boogie Woogie
TTITLE13=Just A Closer Walk With Thee
EXTD=Band members:\n\nMichael Höglinger\nPeter Strutzenberger\nMichael Strasser\nPeter Kölbl\nMarkus Toyfl\nMichael Hudec YEAR: 2007
EXTT0=
EXTT1=
EXTT2=
EXTT3=
EXTT4=
EXTT5=
EXTT6=
EXTT7=
EXTT8=
EXTT9=
EXTT10=
EXTT11=
EXTT12=
EXTT13=
PLAYORDER=
